<svg fill="#5a49f8" id="FINGERPRINT" xmlns="http://www.w3.org/2000/svg" viewBox="0 0 64 64"><path d="M27.23,47.84a25,25,0,0,0,5.25-11.59c0-1.31,1.27-4.93-.65-5.17-1.72.09-.77,3.59-1.32,4.84A23,23,0,0,1,19.25,52.05a1,1,0,0,0-.37,1.36C20.25,55.47,26.16,49.14,27.23,47.84Z"/><path d="M31.64,48.67C35.12,44,41.7,27.26,31.42,27.09h0a5,5,0,0,0-4.62,5,18.88,18.88,0,0,1-2.55,9.51,19.08,19.08,0,0,1-8.6,7.81,1,1,0,0,0,.83,1.82A21.09,21.09,0,0,0,27.74,38.66a20.61,20.61,0,0,0,1.06-6.58,3,3,0,0,1,2.88-3c7,.2.82,15.47-1.68,18.44a27.05,27.05,0,0,1-6.47,6.56,1,1,0,0,0-.23,1.4C24.9,57.39,30.65,50.05,31.64,48.67Z"/><path d="M39.17,42.61a32.93,32.93,0,0,0,1.71-11C40.73,24.49,31.62,20.4,26.17,25c-6.42,5.36-.19,12.74-10,19.49a14.62,14.62,0,0,1-3.46,1.75,1,1,0,0,0-.61,1.28c1.16,2.3,7.38-2.88,8.4-4.2a16.86,16.86,0,0,0,4.28-11.27,7,7,0,0,1,2.65-5.48c4.24-3.61,11.35-.43,11.46,5.13A31,31,0,0,1,28.47,55.25a1,1,0,0,0-.09,1.41c1.43,1.44,4.17-2.95,5.23-3.91A33.09,33.09,0,0,0,39.17,42.61Z"/><path d="M44.92,32.08c.16-12.41-16.39-17.8-23.62-7.72a12.82,12.82,0,0,0-2.55,7.72,11.12,11.12,0,0,1-8.32,10.69A1,1,0,0,0,9.71,44c.73,1.89,4.09-.48,5.22-1.07,9.14-5.91,2.46-14.49,10.75-20,7-5,17.53.62,17.24,9.18A35,35,0,0,1,34.11,55.3,1,1,0,0,0,34.86,57C41.69,51.05,44.77,41,44.92,32.08Z"/><path d="M42.18,18.51c-8.12-6.5-21.28-3.42-25.68,6-3.05,5.24.27,12.91-7.66,14.5a1,1,0,1,0,.33,2,9.08,9.08,0,0,0,7.55-8.9A15.13,15.13,0,0,1,26.79,17.89C36.16,14.27,47.26,22,46.94,32.08A38.92,38.92,0,0,1,40.4,53.7a1,1,0,0,0,.28,1.39c1.8,1.26,4.42-6.06,5.19-7.44C49.62,38.3,51.48,25.26,42.18,18.51Z"/><path d="M9.81,19.93c-.76,1.47-4.28,8.61-2,9.14A1,1,0,0,0,9,28.24a22.88,22.88,0,0,1,4.82-10.66C27.4.8,55,10.43,55,32.08A23.09,23.09,0,0,1,53.94,39a1,1,0,0,0,.65,1.26c2.21.6,2.3-6.67,2.41-8.18C56.81,6.28,22.43-2.48,9.81,19.93Z"/><path d="M45.66,16.16C34.91,6.3,15.91,11.52,11.75,25.5a20.89,20.89,0,0,0-1.06,6.58,3,3,0,0,1-2.77,3,1,1,0,1,0,.16,2c6-.67,4-6.94,5.57-10.95,9.73-25,49.53-12.71,33.74,23.16a1,1,0,0,0,1.83.8,44.6,44.6,0,0,0,3.75-18A20.94,20.94,0,0,0,45.66,16.16Z"/><path d="M4,13a1,1,0,0,0,1-1V5h7a1,1,0,0,0,0-2H4A1,1,0,0,0,3,4v8A1,1,0,0,0,4,13Z"/><path d="M60,3H52a1,1,0,0,0,0,2h7v7a1,1,0,0,0,2,0V4A1,1,0,0,0,60,3Z"/><path d="M60,51a1,1,0,0,0-1,1v7H52a1,1,0,0,0,0,2h8a1,1,0,0,0,1-1V52A1,1,0,0,0,60,51Z"/><path d="M12,59H5V52a1,1,0,0,0-2,0v8a1,1,0,0,0,1,1h8A1,1,0,0,0,12,59Z"/></svg>