<?xml version="1.0" encoding="UTF-8" standalone="no"?> <svg fill="#18dc59" id="Layer_1" data-name="Layer 1" xmlns="http://www.w3.org/2000/svg" viewBox="0 0 512 512"><title>Cash on Delivery</title><path d="M341.333,387.735v-110.4A21.354,21.354,0,0,0,320,256H138.667a21.354,21.354,0,0,0-21.333,21.333V358.09l-21.607,7.2a21.289,21.289,0,0,0-21.059-18.625h-32A21.354,21.354,0,0,0,21.333,368v96a21.354,21.354,0,0,0,21.333,21.333h32a21.289,21.289,0,0,0,20.355-15.291l31.5-5.245a17.506,17.506,0,0,1,10.776,1.62l32.734,16.37a74.229,74.229,0,0,0,57.01,4.047l126.2-42.062a29.383,29.383,0,0,0,18.219-38.182A29.485,29.485,0,0,0,341.333,387.735ZM74.667,464h-32V368h32ZM245.333,277.333v34.495l-10.51-6.307a10.652,10.652,0,0,0-10.979,0l-10.51,6.307V277.333Zm-106.667,0H192v53.333a10.668,10.668,0,0,0,16.156,9.146L229.333,327.1l21.177,12.708a10.668,10.668,0,0,0,16.156-9.146V277.333H320v113.41L262.247,399.3a28.815,28.815,0,0,0-19.179-26.935L176.646,350.6a59.549,59.549,0,0,0-37.135.094l-.844.281ZM351.208,420.359a7.966,7.966,0,0,1-4.719,4.172l-126.2,42.063a52.948,52.948,0,0,1-40.719-2.891l-32.74-16.37a38.727,38.727,0,0,0-23.818-3.578L96,448.255V387.689l50.26-16.752a38,38,0,0,1,23.745-.062L236.1,392.521a7.47,7.47,0,0,1-3.885,14.37L160,393.76a10.667,10.667,0,1,0-3.812,20.99L228.4,427.88a28.574,28.574,0,0,0,22.349-5.311l92.021-13.632a8.077,8.077,0,0,1,8.708,5.135A7.95,7.95,0,0,1,351.208,420.359Z"/><path d="M469.333,32h-32a21.348,21.348,0,0,0-20.8,16.721L302.359,23.331a74.529,74.529,0,0,0-50.214,5.729L210.583,48.115a75.118,75.118,0,0,0-25.089,20.365L172.114,85.333H138.667a21.356,21.356,0,0,0-21.333,21.333V213.333a21.356,21.356,0,0,0,21.333,21.333h224A21.356,21.356,0,0,0,384,213.333V177.2c2.074-.718,4.138-1.476,6.161-2.382l29.715-13.293a21.3,21.3,0,0,0,17.457,9.137h32a21.356,21.356,0,0,0,21.333-21.333v-96A21.356,21.356,0,0,0,469.333,32ZM362.667,213.333h-224V106.667H322.042l-2.547,5.031a10.66,10.66,0,0,1-8.078,5.747l-60.547,8.247a27.948,27.948,0,0,0,3.771,55.641H359.672c1.007,0,1.994-.116,2.995-.156Zm18.786-57.984A53.02,53.02,0,0,1,359.672,160H254.641a6.614,6.614,0,0,1-.9-13.167l60.547-8.247a31.993,31.993,0,0,0,24.234-17.255l10.385-20.513A10.664,10.664,0,0,0,339.4,85.333H199.354l2.849-3.591A53.414,53.414,0,0,1,219.8,67.354L261.359,48.3a53.492,53.492,0,0,1,36.229-4.174L416,70.456v69.439Zm87.88-6.016h-32v-96h32Z"/></svg>